# xmcd CD database file
#
# Track frame offsets:
#	150
#	23858
#	43514
#	66232
#	75569
#	104692
#	119924
#	143643
#	152996
#	185087
#	217689
#	234003
#	262959
#	279719
#
# Disc length: 3945 seconds
#
# Revision: 0
# Processed by: cddbd v1.5.2PL0 Copyright (c) Steve Scherf et al.
# Submitted via: CDex 1.51
#
DISCID=c60f670e
DTITLE=Al Jarreau - Al Jarreau
DYEAR=2008
DGENRE=Jazz
TTITLE0=You
TTITLE1=Lean on me
TTITLE2=Loving you (Live)
TTITLE3=Grandmas hads
TTITLE4=One good turn
TTITLE5=Same love that made me laugh
TTITLE6=Letter perfect (Live)
TTITLE7=Ain't no sunshine
TTITLE8=We got by
TTITLE9=Take five (Live)
TTITLE10=Lonely town, lonely street
TTITLE11=Rainbow in your eyes (Live)
TTITLE12=Kissing my love
TTITLE13=Use me
EXTD=YEAR: 2008
EXTT0=
EXTT1=
EXTT2=
EXTT3=
EXTT4=
EXTT5=
EXTT6=
EXTT7=
EXTT8=
EXTT9=
EXTT10=
EXTT11=
EXTT12=
EXTT13=
PLAYORDER=
